<svg xmlns="http://www.w3.org/2000/svg" viewBox="3.5999999999999996 -6 76.33 76.33"><rect x="3.5999999999999996" y="-6" width="76.33" height="76.33" rx="16.79" fill="#FAF9F7"/><g fill="#171614" stroke="#171614" stroke-linejoin="round"><path stroke-width="0.7" d="M51.44 17.25C47.86 17.25 44.94 20.17 44.94 23.75L44.94 31.07C44.15 31.33 43.53 31.94 43.24 32.71L43.19 32.87C43.16 32.97 43.14 33.06 43.12 33.15L43.10 33.26L41.70 39.26L40.26 32.91C39.95 31.83 39.02 31.06 37.90 30.95L37.59 30.93L37.38 30.93L34.15 30.98L34.15 30.72L35.68 30.72L36.05 30.72L36.07 30.53L36.15 30.72L36.45 30.72L38.49 30.72L38.49 23.75C38.49 20.17 35.57 17.25 31.98 17.25C28.40 17.25 25.48 20.17 25.48 23.75L25.48 30.72L27.95 30.72L28.32 30.73L28.32 30.60L28.41 30.72L28.70 30.72L29.17 30.72L29.56 30.72L29.63 30.22L29.79 30.81L29.82 30.80L29.82 31.03L26.72 31.08C25.27 31.09 24.09 32.24 24.03 33.69L23.26 52.19C22.99 51.94 22.73 51.69 22.48 51.44C17.33 46.30 14.50 39.45 14.50 32.17C14.50 24.88 17.33 18.04 22.48 12.89C27.63 7.74 34.48 4.90 41.76 4.90C49.05 4.90 55.89 7.74 61.04 12.89C66.19 18.04 69.03 24.88 69.03 32.17C69.03 39.80 65.81 47.11 60.18 52.27L59.36 32.42C59.33 31.61 58.74 30.92 57.95 30.76L57.95 23.75C57.95 20.17 55.03 17.25 51.44 17.25M43.11 48.99L43.28 49.75M43.41 50.14C43.44 50.18 44.35 51.30 44.86 52.75L44.92 52.95C44.97 53.12 44.99 53.30 44.99 53.49C44.99 54.42 44.23 55.19 43.29 55.19C43.20 55.19 43.11 55.18 43.02 55.16C42.35 55.05 41.96 54.45 41.58 53.60L37.47 36.14L36.74 36.31L40.75 53.36L40.85 53.82L40.90 53.94C41.26 54.74 41.71 55.50 42.52 55.81L43.27 55.94C43.28 55.94 43.28 55.94 43.29 55.94C44.65 55.94 45.75 54.84 45.75 53.49C45.75 53.36 45.74 53.23 45.72 53.10L45.65 52.72C45.63 52.65 45.60 52.59 45.58 52.52L45.53 52.38C45.04 51.05 44.29 50.04 44.05 49.73L43.81 48.66L45.19 42.57L49.01 42.57L49.38 42.57L49.39 42.46L49.40 42.57L49.75 42.57L54.60 42.57L54.95 42.56L55.08 41.97L55.25 42.57L55.59 42.57L57.95 42.57L57.95 31.55C58.33 31.69 58.59 32.04 58.60 32.45L59.45 52.92C54.52 57.12 48.24 59.43 41.76 59.43C35.23 59.43 28.92 57.09 23.99 52.85L24.78 33.72C24.83 32.67 25.68 31.84 26.73 31.83L37.59 31.69L37.66 31.69C38.59 31.70 39.40 32.37 39.57 33.29L39.67 33.65L41.31 40.96L41.29 41.04L41.33 41.05L43.03 48.66M45.69 40.16L45.69 31.67L45.69 31.32L45.69 23.75C45.69 20.58 48.27 18 51.44 18C54.62 18 57.20 20.58 57.20 23.75L57.20 30.73L57.19 30.73L57.20 31.09L57.20 41.82L55.82 41.82L55.37 40.28L54.68 40.30L54.34 41.82L50.07 41.82L49.55 37.76L48.81 37.79L48.66 41.82L45.69 41.82L45.69 40.38L45.74 40.17ZM42.08 40.96L43.79 33.66L43.92 33.07C44.09 32.54 44.45 32.12 44.94 31.89L44.94 40.30L43.42 46.95ZM30.34 29.96L29.94 28.53L29.25 28.54L28.97 29.73L28.48 26.12L27.75 26.16L27.59 29.96L26.23 29.96L26.23 23.75C26.23 20.58 28.81 18 31.98 18C35.16 18 37.74 20.58 37.74 23.75L37.74 29.96L36.72 29.96L36.22 27.53L35.49 27.58L35.34 29.96ZM33.40 30.72L33.40 30.99L30.57 31.02L30.57 30.72ZM61.58 12.35C56.29 7.06 49.25 4.14 41.76 4.14C34.28 4.14 27.24 7.06 21.95 12.35C16.66 17.64 13.74 24.68 13.74 32.17C13.74 39.65 16.66 46.69 21.95 51.98C22.35 52.37 22.77 52.78 23.22 53.17L23.28 53.23L23.35 53.29C28.44 57.74 34.98 60.19 41.76 60.19C48.44 60.19 54.91 57.80 59.98 53.46L60.10 53.34L60.22 53.25C66.30 47.92 69.78 40.24 69.78 32.17C69.78 24.68 66.87 17.64 61.58 12.35"/><path stroke-width="1.3" d="M41.76 63.51C33.39 63.51 25.52 60.25 19.60 54.33C13.68 48.41 10.42 40.54 10.42 32.17C10.42 23.79 13.68 15.92 19.60 10C25.52 4.08 33.39 0.82 41.76 0.82C50.14 0.82 58.01 4.08 63.93 10C69.85 15.92 73.11 23.79 73.11 32.17C73.11 40.54 69.85 48.41 63.93 54.33C58.01 60.25 50.14 63.51 41.76 63.51M64.51 9.42C58.43 3.35 50.36 0 41.76 0C33.17 0 25.10 3.35 19.02 9.42C12.94 15.50 9.60 23.57 9.60 32.17C9.60 40.76 12.94 48.83 19.02 54.91C25.10 60.98 33.17 64.33 41.76 64.33C50.36 64.33 58.43 60.98 64.51 54.91C70.58 48.83 73.93 40.76 73.93 32.17C73.93 23.57 70.58 15.50 64.51 9.42"/></g></svg>
